HIERARCHY
ROOT Hips
{
  OFFSET 40.9192 92.6879 18.85
  CHANNELS 6 Xposition Yposition Zposition Zrotation Xrotation Yrotation
  JOINT LeftUpLeg
  {
    OFFSET 8.64259 1.95398 -2.38835
    CHANNELS 3 Zrotation Xrotation Yrotation
    JOINT LeftLeg
    {
      OFFSET 43.7702 0 0
      CHANNELS 3 Zrotation Xrotation Yrotation
      JOINT LeftFoot
      {
        OFFSET 40.6238 0 0
        CHANNELS 3 Zrotation Xrotation Yrotation
        JOINT LeftToeBase
        {
          OFFSET 12.7242 0 0
          CHANNELS 3 Zrotation Xrotation Yrotation
          End Site
          {
            OFFSET 0 0 0
          }
        }
      }
    }
  }
  JOINT RightUpLeg
  {
    OFFSET -8.2249 1.95398 -2.59336
    CHANNELS 3 Zrotation Xrotation Yrotation
    JOINT RightLeg
    {
      OFFSET 43.5653 0 0
      CHANNELS 3 Zrotation Xrotation Yrotation
      JOINT RightFoot
      {
        OFFSET 40.6238 0 0
        CHANNELS 3 Zrotation Xrotation Yrotation
        JOINT RightToeBase
        {
          OFFSET 12.7242 0 0
          CHANNELS 3 Zrotation Xrotation Yrotation
          End Site
          {
            OFFSET 0 0 0
          }
        }
      }
    }
  }
  JOINT Spine
  {
    OFFSET 0.165834 0.87714 6.61349
    CHANNELS 3 Zrotation Xrotation Yrotation
    JOINT Spine1
    {
      OFFSET 7.38963 1.71661e-005 0
      CHANNELS 3 Zrotation Xrotation Yrotation
      JOINT Spine2
      {
        OFFSET 11.9445 1.14441e-005 0
        CHANNELS 3 Zrotation Xrotation Yrotation
        JOINT Spine3
        {
          OFFSET 14.7254 4.19617e-005 0
          CHANNELS 3 Zrotation Xrotation Yrotation
          JOINT Spine4
          {
            OFFSET 10.9679 0 0
            CHANNELS 3 Zrotation Xrotation Yrotation
            JOINT RightShoulder
            {
              OFFSET 2.46616 -1.6653 3.69651
              CHANNELS 3 Zrotation Xrotation Yrotation
              JOINT RightArm
              {
                OFFSET 13.0012 0 0
                CHANNELS 3 Zrotation Xrotation Yrotation
                JOINT RightForeArm
                {
                  OFFSET 28.7848 1.52588e-005 0
                  CHANNELS 3 Zrotation Xrotation Yrotation
                  JOINT RightHand
                  {
                    OFFSET 26.5688 1.52588e-005 0
                    CHANNELS 3 Zrotation Xrotation Yrotation
                    End Site
                    {
                      OFFSET 0 0 0
                    }
                  }
                }
              }
            }
            JOINT LeftShoulder
            {
              OFFSET 2.38034 -1.29275 -3.7523
              CHANNELS 3 Zrotation Xrotation Yrotation
              JOINT LeftArm
              {
                OFFSET 16.3182 6.10351e-005 0
                CHANNELS 3 Zrotation Xrotation Yrotation
                JOINT LeftForeArm
                {
                  OFFSET 27.0901 0 0
                  CHANNELS 3 Zrotation Xrotation Yrotation
                  JOINT LeftHand
                  {
                    OFFSET 24.5451 1.52588e-005 0
                    CHANNELS 3 Zrotation Xrotation Yrotation
                    End Site
                    {
                      OFFSET 0 0 0
                    }
                  }
                }
              }
            }
            JOINT Neck
            {
              OFFSET 5.0226 -0.0266342 0
              CHANNELS 3 Zrotation Xrotation Yrotation
              JOINT Head
              {
                OFFSET 6.69363 2.86102e-005 0
                CHANNELS 3 Zrotation Xrotation Yrotation
                End Site
                {
                  OFFSET 0 0 0
                }
              }
            }
          }
        }
      }
    }
  }
}
MOTION
Frames:	16
Frame Time:	0.0416667
-61.6208 96.8051 48.1945 165.532 -87.5346 162.885 -169.742 1.70668 97.5363 -7.28609 12.2816 -0.0987259 56.0952 -1.08858 -1.74823 33.2771 3.43141 2.97025 171.022 2.92317 88.3729 -16.3424 -8.979 1.64101 69.6475 -3.81652 -1.91635 26.793 0.0821608 -2.2211 -0.127233 7.19721 -91.0274 12.4688 -0.741537 -1.96682 0.796683 -0.827368 -1.9323 -21.7267 -0.116296 -2.09869 -1.714 -0.11629 -2.09869 92.6304 -48.2116 -97.1174 22.564 -7.06632 -0.474313 -3.26238 -27.7268 -37.8142 -6.38251 -1.01248 6.91097 -98.9165 -47.6113 64.7138 -23.3926 23.2614 -6.27574 0.353318 14.2209 -32.251 13.3692 1.18942 4.86908 12.1595 -0.469527 -8.49294 -5.32696 1.39001 1.1963 
-61.7152 96.8034 48.1109 -173.013 -87.2617 -175.974 -169.754 1.2492 97.3316 -7.49582 11.293 -0.1251 56.0425 -0.946035 -2.16141 33.6487 3.73216 3.16156 171.009 3.05985 88.0873 -16.9904 -9.80979 1.42479 69.9551 -3.93624 -1.96137 26.5062 0.0593021 -2.05533 -0.152574 7.24188 -91.0101 12.3795 -0.782965 -1.92797 0.707378 -0.86703 -1.89167 -21.8165 -0.167466 -2.07409 -1.80385 -0.16747 -2.07409 92.0711 -47.3566 -98.1721 23.2645 -6.98884 -0.274744 -3.61971 -27.8856 -38.0654 -5.94285 -0.989386 7.05835 -98.5422 -48.1261 65.4572 -23.5601 23.4078 -6.6235 0.251332 14.0426 -32.2938 13.4362 1.06102 3.90875 11.7799 -0.480348 -7.41154 -4.69469 1.12149 -0.65267 
-61.3339 96.8031 47.9499 -167.165 -87.2238 -169.748 -169.673 1.45967 97.4703 -7.684 11.0323 -0.11449 55.7184 -0.952565 -1.94767 34.2212 4.23059 2.24154 171.056 3.00416 88.2129 -16.6112 -10.0232 1.4601 69.611 -3.85439 -1.93164 26.869 0.0636528 -1.95447 -0.160686 7.23147 -91.0092 12.4002 -0.798748 -1.92405 0.728116 -0.882638 -1.88706 -21.7958 -0.183707 -2.07509 -1.78318 -0.183707 -2.0751 92.5169 -47.7428 -97.3875 22.901 -7.07006 -0.694257 -3.62491 -28.4214 -37.9575 -5.99561 -0.995051 6.98949 -98.4911 -47.891 65.4481 -24.05 23.3881 -6.49524 0.431279 14.0066 -32.5446 12.8351 1.07588 4.39214 11.5267 -0.946839 -8.01534 -4.4334 0.774813 -0.818723 
-60.6087 96.8607 47.6679 -162.082 -87.2797 -164.216 -169.575 1.75022 97.4765 -7.70349 11.2562 -0.232125 55.3694 -1.0214 -1.07492 34.2315 4.26305 1.24868 171.279 2.96895 88.3525 -15.8518 -9.9794 1.28365 68.7593 -3.59838 -1.82416 27.3071 0.0659676 -1.80826 -0.170493 7.21309 -91.0371 12.4363 -0.831833 -1.97585 0.76418 -0.91796 -1.93736 -21.7592 -0.199702 -2.13443 -1.74653 -0.199701 -2.13443 92.2322 -47.7525 -97.836 22.5908 -7.05161 -0.3423 -2.96648 -27.6123 -37.7101 -6.34773 -1.00903 6.94414 -98.4063 -47.9047 65.5792 -24.3151 22.8981 -6.39953 1.23129 14.8404 -32.7513 10.7666 0.922399 4.39108 11.314 -1.12254 -7.88725 -4.27821 0.555611 -1.42905 
-59.5703 96.9559 47.3125 -158.135 -87.406 -160.071 -169.663 2.3297 97.088 -8.27242 10.6401 -0.456901 55.7723 -0.92944 -0.877596 34.2158 4.2699 0.435744 171.23 3.19055 88.0199 -15.2407 -10.2589 1.12185 67.8293 -3.32281 -1.70164 27.9787 0.109234 -2.09074 -0.186478 7.21708 -91.0172 12.4284 -0.854044 -1.93355 0.756387 -0.9383 -1.89411 -21.7675 -0.233597 -2.10075 -1.7549 -0.233591 -2.10075 92.3943 -47.8133 -97.5677 22.3241 -6.80486 -0.761342 -3.317 -28.2221 -37.5377 -6.11447 -1.00986 7.12003 -98.4176 -47.997 65.5955 -23.9556 23.4968 -6.64572 0.2857 14.0968 -32.2947 12.9961 1.02074 3.85234 11.7235 -1.09157 -7.965 -4.75154 0.637706 -1.23325 
-58.2456 97.0352 46.8482 -154.702 -86.7901 -156.723 -169.549 1.82805 96.4612 -8.25395 10.4792 -0.998583 56.3398 -0.742076 -0.444693 33.6481 3.81242 0.724764 171.196 2.90055 87.3036 -14.7687 -10.5839 0.591308 67.4918 -3.25826 -1.67516 27.8291 0.0800507 -1.75178 -0.181305 7.28188 -90.9448 12.3002 -0.808383 -1.79506 0.628305 -0.886583 -1.75776 -21.8972 -0.231641 -1.95497 -1.88455 -0.231635 -1.95496 92.3094 -47.7324 -97.718 22.4163 -6.67766 -0.564117 -3.6115 -27.9924 -37.8087 -6.10495 -0.989314 6.82244 -98.365 -47.9098 65.6426 -23.789 22.8674 -6.65149 0.343048 13.7514 -32.2452 10.6062 1.05176 5.66857 11.2239 -0.998911 -7.65776 -4.24095 0.621975 -1.42241 
-56.5312 97.0833 46.4338 -152.199 -87.0676 -153.699 -169.484 2.16304 96.0397 -8.21987 10.6823 -1.42602 57.8012 0.124711 0.420895 32.4799 2.91761 -0.0167462 171.181 3.24545 86.9753 -13.9696 -10.6919 0.36854 66.4963 -3.00176 -1.56367 28.5606 0.133806 -2.20324 -0.184845 7.26133 -90.9071 12.342 -0.797826 -1.72057 0.670182 -0.872763 -1.68381 -21.8562 -0.243946 -1.88075 -1.8435 -0.243944 -1.88075 92.2922 -47.7849 -97.7347 22.5957 -6.55907 -0.680267 -3.43911 -27.9192 -37.3645 -6.32118 -1.02771 7.17929 -97.9735 -47.9041 66.2226 -23.8443 23.0584 -6.90778 0.172315 14.5054 -31.4066 12.8614 1.08028 4.35327 11.3264 -0.668044 -7.41989 -4.42654 0.905157 -1.22592 
-54.6646 97.1473 46.0643 -151.671 -87.1616 -152.85 -169.532 2.3929 95.4277 -8.45748 10.4198 -1.85177 58.6391 0.33293 0.696923 32.1896 2.73071 -0.797187 171.281 3.23072 86.4671 -12.9147 -10.618 -0.132757 65.101 -2.58492 -1.36205 29.8801 0.21491 -2.91553 -0.163325 7.25668 -90.78 12.3536 -0.6948 -1.47851 0.682016 -0.759196 -1.44651 -21.8466 -0.218402 -1.61894 -1.834 -0.218398 -1.61894 92.3423 -48.146 -97.5839 22.9921 -6.75814 -0.682799 -3.24849 -27.6198 -37.3341 -6.35372 -1.01774 7.03999 -98.0974 -47.7832 65.9956 -23.6748 22.5948 -6.3937 0.163401 14.4081 -31.1277 12.7992 1.07968 4.39998 11.3545 -0.415507 -7.06814 -4.80224 1.08577 -0.432248 
-52.6522 97.2183 45.7208 -142.764 -86.9456 -143.608 -169.483 2.57089 94.7501 -8.86844 10.181 -2.39246 59.7295 0.600212 1.61149 31.3616 2.14705 -1.73387 171.344 2.99683 85.918 -11.3064 -10.8226 -0.682596 63.4607 -2.15963 -1.15235 30.8125 0.260556 -3.408 -0.093997 7.26387 -90.5964 12.3424 -0.469846 -1.13744 0.671061 -0.519441 -1.11568 -21.8602 -0.106305 -1.22606 -1.84752 -0.106303 -1.22605 92.4241 -48.4389 -97.398 23.9453 -7.0063 -0.797843 -3.5988 -27.3068 -37.7287 -6.1184 -1.00437 7.15151 -98.0477 -47.8675 66.0993 -23.2166 22.0591 -5.95351 0.100749 14.4923 -30.6082 12.9477 1.14021 4.76188 11.2186 -0.140541 -6.16603 -4.79099 1.15693 -0.173884 
-50.6643 97.2158 45.4338 -138.391 -86.7885 -138.885 -169.197 3.28903 94.2399 -10.3397 9.39186 -3.11129 61.3973 0.990018 1.21987 30.055 1.16367 -1.91795 171.571 2.88337 85.4713 -10.219 -10.5369 -1.34673 62.3084 -1.89602 -1.02273 31.3835 0.297734 -4.02484 -0.0394368 7.27065 -90.3799 12.3314 -0.258654 -0.729395 0.660327 -0.290499 -0.71731 -21.8732 -0.0274897 -0.773407 -1.86057 -0.0274925 -0.773417 92.6026 -48.1198 -97.1789 25.5807 -7.65098 -1.11111 -3.63278 -27.5543 -37.8395 -6.26236 -1.00378 6.91842 -98.0808 -48.2774 66.1949 -22.2193 21.4894 -5.66926 -0.113276 14.9987 -29.4538 13.2485 1.1587 4.71592 10.7605 0.346938 -4.99202 -4.2289 1.37092 0.46256 
-48.6041 97.1455 45.1296 -138.971 -86.4452 -139.245 -169.085 3.53236 93.5124 -11.4943 10.2349 -3.76719 63.0195 1.96344 2.83049 28.4405 -0.0936823 -1.68382 171.691 3.15799 84.8102 -10.4422 -10.4237 -2.01423 61.3873 -1.61259 -0.853614 31.7642 0.289385 -3.64242 0.0436986 7.29867 -90.1492 12.276 0.0161258 -0.299296 0.605026 0.00293962 -0.299722 -21.9299 0.105326 -0.280614 -1.91722 0.105334 -0.280608 92.868 -47.6496 -96.849 27.2166 -8.47743 -1.19796 -3.42898 -27.2588 -38.3192 -6.84859 -1.00631 6.37208 -98.4969 -48.9511 65.8186 -21.2834 20.5184 -4.7759 0.0172611 15.0545 -28.8014 12.3245 1.08401 4.73229 9.76282 0.834083 -3.33831 -3.17182 1.50246 1.47794 
-46.575 97.0403 44.9374 -133.012 -85.5956 -132.937 -168.677 3.4366 93.0973 -12.3566 9.94959 -4.50689 64.5667 2.65441 2.26007 27.591 -0.859859 -0.702034 171.836 2.81563 84.3436 -9.46035 -11.0496 -2.69912 60.3952 -1.46645 -0.794792 32.3318 0.306641 -3.88125 0.226795 7.32712 -89.9214 12.2201 0.488036 0.102391 0.549243 0.492073 0.0808033 -21.9865 0.4347 0.244335 -1.97383 0.434701 0.244331 92.641 -47.6587 -97.2073 27.9801 -9.08975 -0.842716 -4.06073 -27.709 -39.0651 -6.45482 -0.983136 6.34635 -98.6971 -49.4652 65.7066 -20.5294 19.5768 -3.55389 0.34217 15.0926 -28.9068 13.3366 1.28296 5.5529 9.76407 0.899717 -1.62596 -2.92787 1.25805 3.32237 
-44.7853 96.9349 44.7615 -127.663 -85.6791 -126.538 -168.407 4.68568 93.1691 -13.9258 9.62387 -4.85446 65.8988 3.00624 2.09807 26.8071 -1.4208 -1.11795 172.403 3.35814 84.7221 -9.1907 -10.8103 -3.05035 58.603 -0.958923 -0.480387 33.3621 0.344213 -4.73658 0.312017 7.26604 -89.7784 12.3407 0.725317 0.360295 0.669887 0.740467 0.328022 -21.866 0.5835 0.561627 -1.85336 0.583498 0.56163 92.4946 -47.2006 -97.53 29.2292 -9.50349 -0.907602 -5.10791 -28.8421 -39.696 -5.48083 -0.93187 6.41399 -98.6407 -49.7722 65.8968 -19.8661 18.6843 -2.23584 0.537913 14.9964 -28.4245 11.6815 1.138 5.57216 9.86868 1.25103 0.658396 -3.23292 1.16775 4.82953 
-43.5168 96.9362 44.7356 -124.067 -85.3776 -122.107 -168.34 5.10264 93.23 -14.7004 9.40579 -4.90367 66.6363 3.18248 1.91339 26.661 -1.60021 -0.613664 173.005 3.69886 85.0959 -9.48206 -11.1389 -3.50066 57.5232 -0.730329 -0.347159 33.9362 0.363399 -5.46823 0.378571 7.24883 -89.5739 12.3726 0.954704 0.742499 0.701785 0.986457 0.69976 -21.8333 0.687423 0.995091 -1.82065 0.687425 0.995095 92.1823 -47.3137 -98.0043 30.0329 -10.1321 -1.31289 -4.28762 -27.8517 -39.8889 -6.11075 -0.961973 6.38396 -98.1966 -49.5735 66.4763 -18.8333 18.1102 -1.25503 0.405707 15.3021 -27.4146 10.9317 1.0353 5.26072 9.58722 1.29237 2.56681 -2.17795 0.879303 4.73059 
-42.5286 96.9273 44.8186 -126.06 -84.8986 -123.338 -168.413 4.9728 93.3101 -15.5252 8.74447 -4.66549 67.7052 3.60385 1.57431 25.8242 -2.31541 -0.20729 173.311 3.6228 85.3034 -9.89779 -11.9976 -3.75679 56.4964 -0.422785 -0.145877 34.8514 0.377035 -6.48424 0.457169 7.25151 -89.4423 12.3651 1.17332 0.980107 0.694398 1.21532 0.927503 -21.8402 0.824533 1.2874 -1.82755 0.824539 1.2874 92.0612 -46.7767 -98.3083 30.7949 -10.8301 -1.3733 -4.58184 -28.0591 -40.8796 -5.87141 -0.922484 5.97906 -98.5507 -49.8778 66.0652 -17.5252 17.2244 -0.488044 -0.209708 15.384 -25.408 10.7996 0.966093 4.76386 9.51011 1.63168 4.44191 -2.92945 0.800009 3.72671 
-41.8929 96.8972 45.0541 -127.219 -85.0095 -124.042 -168.514 5.05277 93.3229 -15.9584 9.04432 -4.5752 68.1119 3.83365 2.02337 25.7416 -2.29592 -0.801303 173.509 3.87531 85.4012 -10.6177 -12.3001 -3.86466 56.0318 -0.240429 -0.0250674 35.4111 0.375211 -6.91523 0.487191 7.24055 -89.3058 12.3846 1.29792 1.23844 0.71382 1.35117 1.1801 -21.8193 0.865765 1.5712 -1.80666 0.865768 1.57121 92.2931 -47.0283 -97.8861 30.8652 -10.991 -1.95542 -5.21557 -28.5458 -41.7884 -5.58973 -0.923987 6.22981 -98.3736 -49.431 66.1677 -16.9238 16.7673 -0.0731942 -0.392567 15.2512 -24.722 10.918 0.977729 4.78061 9.97094 1.98606 4.4785 -3.6487 1.10362 4.20641 
